/vscmnt/brussel_pixiu_data/_data_brussel/112/vsc11236/PredSimResults/SUBJ09opt3D/weighted-expIG/worker_05.mot
version=1
nRows=6
nColumns=50
inDegrees=yes
endheader
                time	         pelvis_tilt	         pelvis_list	     pelvis_rotation	           pelvis_tx	           pelvis_ty	           pelvis_tz	       hip_flexion_r	     hip_adduction_r	      hip_rotation_r	        knee_angle_r	       ankle_angle_r	         mtp_angle_r	       hip_flexion_l	     hip_adduction_l	      hip_rotation_l	        knee_angle_l	       ankle_angle_l	         mtp_angle_l	    lumbar_extension	      lumbar_bending	     lumbar_rotation	 ercspn_r/activation	 intobl_r/activation	 extobl_r/activation	    abd_r/activation	    add_r/activation	hamstrings_r/activation	bifemsh_r/activation	glut_max_r/activation	iliopsoas_r/activation	rect_fem_r/activation	  vasti_r/activation	gastroc_r/activation	 soleus_r/activation	tib_ant_r/activation	 ercspn_l/activation	 intobl_l/activation	 extobl_l/activation	    abd_l/activation	    add_l/activation	hamstrings_l/activation	bifemsh_l/activation	glut_max_l/activation	iliopsoas_l/activation	rect_fem_l/activation	  vasti_l/activation	gastroc_l/activation	 soleus_l/activation	tib_ant_l/activation	
          0.00000000	         -3.71504334	         -1.60529753	          7.50140378	          0.00000000	          0.99503345	         -0.00129193	         23.50025096	          0.32395551	         -4.82888882	          2.42920855	          2.59566724	          0.23054778	        -11.10457100	         -2.99992173	         -4.21396681	        -13.02921668	          5.46870983	         36.56371945	        -12.34423948	         -1.08865592	        -10.75295540	          0.03952948	          0.20885494	          0.05193281	          0.00999999	          0.27508064	          0.05712153	          0.00999999	          0.00999999	          0.09128307	          0.02686694	          0.03412403	          0.00999999	          0.00999999	          0.32994962	          0.00999999	          0.00999999	          0.00999999	          0.05774055	          0.00999999	          0.01547557	          0.28647087	          0.01851394	          0.00999999	          0.00999999	          0.00999999	          0.31655179	          0.26775303	          0.01205373	
          0.01341454	         -3.78161513	         -1.78929861	          7.46665390	          0.02006138	          0.99287722	         -0.00023729	         23.07234678	          0.72920674	         -5.14314087	          1.57322894	          1.87546946	          0.23089472	        -11.59169816	         -3.42157586	         -4.80453821	        -14.03526249	          4.44818962	         38.33153814	        -11.69865035	         -0.52610437	        -10.92063304	          0.03230653	          0.17069229	          0.04244348	          0.00999999	          0.22481702	          0.06516612	          0.00999999	          0.04585429	          0.07460354	          0.02195773	          0.06101538	          0.01497136	          0.01497136	          0.34549752	          0.00999999	          0.00999999	          0.00999999	          0.04719001	          0.00999999	          0.03817538	          0.27056939	          0.01513101	          0.00999999	          0.00999999	          0.00999999	          0.28992844	          0.24512196	          0.00999999	
          0.02682909	         -3.82391012	         -2.02576566	          7.39580093	          0.04049306	          0.99091832	          0.00081423	         22.51467532	          1.14431452	         -5.46108411	          0.70836611	          1.11752482	          0.21944974	        -11.92837457	         -3.91676583	         -5.42909861	        -15.37277308	          3.27348410	         40.08687624	        -11.02851551	          0.11383492	        -11.02520517	          0.02640337	          0.13950284	          0.03468807	          0.07928026	          0.18373773	          0.07239512	          0.01223575	          0.05340690	          0.06097174	          0.01794554	          0.04986645	          0.01223575	          0.01223575	          0.41857738	          0.00999999	          0.00999999	          0.00999999	          0.03856730	          0.00999999	          0.04606814	          0.24052518	          0.01236623	          0.03064588	          0.00999999	          0.00999999	          0.25010700	          0.21509736	          0.00999999	
          0.04024363	         -3.84773568	         -2.29697085	          7.28856082	          0.06092993	          0.98943559	          0.00193955	         21.83860208	          1.60340831	         -5.86066638	          0.07037641	          0.18554703	          0.18520803	        -12.02156666	         -4.47688896	         -6.07728184	        -17.14365143	          1.89285708	         41.73227130	        -10.37622135	          0.80056783	        -11.06731602	          0.02157886	          0.11401243	          0.02834975	          0.13586166	          0.15016457	          0.07265506	          0.00999999	          0.05873693	          0.04983078	          0.01466647	          0.04075469	          0.00999999	          0.00999999	          0.46625536	          0.01411583	          0.00999999	          0.00999999	          0.03152016	          0.00999999	          0.06354624	          0.19657564	          0.01010663	          0.04974108	          0.00999999	          0.00999999	          0.20440664	          0.17579407	          0.00999999	
          0.05365817	         -3.85728789	         -2.59127277	          7.15318160	          0.08099897	          0.98866672	          0.00313932	         21.13968097	          2.09144765	         -6.28014303	         -0.57507993	         -0.41634418	          0.14484230	        -11.79390982	         -5.10014096	         -6.73823818	        -19.42803932	          0.32186389	         43.02735790	         -9.78273223	          1.51944262	        -11.05302233	          0.01763590	          0.09317971	          0.02316959	          0.19524252	          0.12272602	          0.07137864	          0.00999999	          0.08502269	          0.04072554	          0.01198657	          0.03791846	          0.00999999	          0.00999999	          0.48502930	          0.07305615	          0.00999999	          0.00999999	          0.02576069	          0.02664162	          0.07668393	          0.16065671	          0.00999999	          0.04480704	          0.00999999	          0.00999999	          0.16705679	          0.14367241	          0.00999999	
          0.06707271	         -3.85744196	         -2.89264987	          6.99784906	          0.10038699	          0.98885025	          0.00439292	         20.44739901	          2.59176614	         -6.63501196	         -1.25129543	         -0.61629279	          0.10861712	        -11.19359093	         -5.77813386	         -7.42655036	        -22.26176325	         -1.37003261	         43.56910437	         -9.27822695	          2.24999920	        -10.98916786	          0.01573632	          0.07615361	          0.01893597	          0.21371231	          0.12981022	          0.07343072	          0.00999999	          0.11687782	          0.03328404	          0.00999999	          0.07113318	          0.00999999	          0.00999999	          0.46716885	          0.07138846	          0.00999999	          0.00999999	          0.02105361	          0.10086922	          0.07996311	          0.13130099	          0.00999999	          0.09425069	          0.00999999	          0.00999999	          0.13653164	          0.11742012	          0.00999999	
